<svg width="127" height="140" viewBox="0 0 127 140" fill="none" xmlns="http://www.w3.org/2000/svg">
<rect width="127" height="140" rx="12" fill="#A7A7A7" fill-opacity="0.48"/>
<path d="M77.6412 35.75H49.3587C37.0737 35.75 29.75 43.0737 29.75 55.3587V83.6075C29.75 95.9263 37.0737 103.25 49.3587 103.25H77.6075C89.8925 103.25 97.2162 95.9263 97.2162 83.6413V55.3587C97.25 43.0737 89.9262 35.75 77.6412 35.75ZM61.8125 87.2188C61.8125 88.4338 60.5975 89.2437 59.4837 88.7712C55.4 87.0162 50.0675 85.3962 46.355 84.9237L45.7137 84.8562C43.655 84.5862 41.9675 82.6625 41.9675 80.57V54.5825C41.9675 51.9837 44.06 50.06 46.625 50.2625C50.8437 50.6 57.0875 52.625 61.0025 54.8525C61.5425 55.1562 61.8125 55.73 61.8125 56.3038V87.2188ZM85.0325 80.5363C85.0325 82.6287 83.345 84.5525 81.2862 84.8225L80.5775 84.89C76.8987 85.3962 71.6 86.9825 67.5162 88.7038C66.4025 89.1763 65.1875 88.3662 65.1875 87.1512V56.27C65.1875 55.6625 65.4912 55.0887 66.0312 54.785C69.9462 52.5912 76.055 50.6338 80.2062 50.2625H80.3412C82.94 50.2625 85.0325 52.355 85.0325 54.9538V80.5363Z" fill="#2296F3"/>
</svg>
