<svg width="127" height="140" viewBox="0 0 127 140" fill="none" xmlns="http://www.w3.org/2000/svg">
<rect width="127" height="140" rx="12" fill="#A7A7A7" fill-opacity="0.48"/>
<path d="M77.6412 35.75H49.3587C37.0737 35.75 29.75 43.0737 29.75 55.3587V83.6075C29.75 95.9263 37.0737 103.25 49.3587 103.25H77.6075C89.8925 103.25 97.2162 95.9263 97.2162 83.6413V55.3587C97.25 43.0737 89.9262 35.75 77.6412 35.75ZM82.1637 63.4925L76.865 68.7912C76.3587 69.2975 75.7175 69.5338 75.0762 69.5338C74.435 69.5338 73.7937 69.2975 73.2875 68.7912C72.3087 67.8125 72.3087 66.1925 73.2875 65.2137L74.165 64.3363H57.02C52.7 64.3363 49.1562 67.8463 49.1562 72.2C49.1562 76.5537 52.6662 80.0638 57.02 80.0638H73.625C75.0087 80.0638 76.1562 81.2113 76.1562 82.595C76.1562 83.9788 75.0087 85.1262 73.625 85.1262H57.02C49.8987 85.1262 44.0937 79.3213 44.0937 72.2C44.0937 65.0788 49.8987 59.2738 57.02 59.2738H74.4012L73.2875 58.1937C72.3087 57.215 72.3087 55.595 73.2875 54.6163C74.2662 53.6375 75.8862 53.6375 76.865 54.6163L82.1637 59.915C83.1425 60.9275 83.1425 62.5138 82.1637 63.4925Z" fill="#2296F3"/>
</svg>
