<svg width="127" height="140" viewBox="0 0 127 140" fill="none" xmlns="http://www.w3.org/2000/svg">
<rect width="127" height="140" rx="12" fill="#A7A7A7" fill-opacity="0.48"/>
<path d="M61.8125 35.75C44.1275 35.75 29.75 50.1275 29.75 67.8125C29.75 85.4975 44.1275 99.875 61.8125 99.875C79.4975 99.875 93.875 85.4975 93.875 67.8125C93.875 50.1275 79.4975 35.75 61.8125 35.75ZM61.8125 75.4063H51.6875C50.3038 75.4063 49.1563 74.2588 49.1563 72.875C49.1563 71.4913 50.3038 70.3438 51.6875 70.3438H61.8125C63.1963 70.3438 64.3438 71.4913 64.3438 72.875C64.3438 74.2588 63.1963 75.4063 61.8125 75.4063ZM71.9375 65.2813H51.6875C50.3038 65.2813 49.1563 64.1338 49.1563 62.75C49.1563 61.3663 50.3038 60.2188 51.6875 60.2188H71.9375C73.3213 60.2188 74.4688 61.3663 74.4688 62.75C74.4688 64.1338 73.3213 65.2813 71.9375 65.2813Z" fill="#2296F3"/>
<path d="M94.8891 103.245C94.2816 103.245 93.6741 103.009 93.2353 102.57L86.9579 96.2928C86.0466 95.3815 86.0466 93.8965 86.9579 92.9515C87.8691 92.0403 89.3541 92.0403 90.2991 92.9515L96.5766 99.229C97.4879 100.14 97.4879 101.625 96.5766 102.57C96.1041 103.009 95.4966 103.245 94.8891 103.245Z" fill="#2296F3"/>
</svg>
